inDegrees=yes
name=ik_S55_A13_T02
DataType=double
version=3
OpenSimVersion=4.3-2021-08-27-4bc7ad9
endheader
time	pelvis_tilt	pelvis_list	pelvis_rotation	pelvis_tx	pelvis_ty	pelvis_tz	hip_flexion_r	hip_adduction_r	hip_rotation_r	knee_angle_r	knee_angle_r_beta	ankle_angle_r	subtalar_angle_r	mtp_angle_r	hip_flexion_l	hip_adduction_l	hip_rotation_l	knee_angle_l	knee_angle_l_beta	ankle_angle_l	subtalar_angle_l	mtp_angle_l	lumbar_extension	lumbar_bending	lumbar_rotation	arm_flex_r	arm_add_r	arm_rot_r	elbow_flex_r	pro_sup_r	wrist_flex_r	wrist_dev_r	arm_flex_l	arm_add_l	arm_rot_l	elbow_flex_l	pro_sup_l	wrist_flex_l	wrist_dev_l
9.439999999999888	2.343459641278685	0.5435201084303325	28.00584335171074	0	0.9399999999999999	0	32.80838517101667	-9.585805087429325	-8.974040446124427	38.44884220680473	0.6710588900885049	0	0	0	32.80838517101667	-9.585805087429325	-8.974040446124427	38.44884220680473	0.6710588900885049	0	0	0	2.597060466204881	0.4550614109346781	5.743998956677063	88.7564649454697	-9.056309250184409	6.576736324385784	78.74778636167805	155.0230700600719	0	0	6.906381888178691	-17.60758615232582	-2.986417435661927	38.46168687684641	137.3959085320477	0	0
9.459999999999887	2.257687939826232	0.3417727266499573	28.26243634118331	0	0.9399999999999999	0	33.08579498421769	-9.607437631364565	-9.01426422940909	38.78755588908298	0.6769705590658145	0	0	0	33.08579498421769	-9.607437631364565	-9.01426422940909	38.78755588908298	0.6769705590658145	0	0	0	2.422949895359304	0.2667633115701258	5.93382610173756	89.31777660593713	-10.09241067743633	6.716579649473405	68.69230066438904	152.0988374915996	0	0	7.453851338840548	-17.81947691116988	-2.629684904839373	35.87522436418458	139.0857395114566	0	0
9.479999999999887	2.179345728056497	0.06550614046266594	28.67140190977822	0	0.9399999999999999	0	33.17653246197922	-9.614988330404527	-9.027909254669128	38.89407322064108	0.6788296372119417	0	0	0	33.17653246197922	-9.614988330404527	-9.027909254669128	38.89407322064108	0.6788296372119417	0	0	0	2.202483252006628	0.03793029790918673	5.853122283397467	93.14087757163797	-6.694431208271528	7.668711674364673	64.71363485418615	153.9789215156799	0	0	10.59313964974418	-15.46124105791444	-1.774867618724515	28.52883557507842	142.3237497646878	0	0
9.499999999999886	2.227611162137268	-0.1175747449999406	28.63718045945667	0	0.9399999999999999	0	33.41890600262388	-9.632782683033723	-9.061931836124078	39.19225868217242	0.6840339552972424	0	0	0	33.41890600262388	-9.632782683033723	-9.061931836124078	39.19225868217242	0.6840339552972424	0	0	0	2.16464947104237	-0.1446820619006362	6.274724304874454	93.41324891160649	-7.524725491140616	8.249585481747626	52.91289107841028	151.2546781013543	0	0	12.08086133877566	-14.52183675157985	-0.8840816669743452	24.10970339476109	143.2303358831965	0	0
9.519999999999886	2.193214701538969	-0.1660454482705199	30.10842112221848	0	0.9399999999999999	0	33.82157505904031	-9.662638260341584	-9.118751299993949	39.68147563390701	0.6925724018615814	0	0	0	33.82157505904031	-9.662638260341584	-9.118751299993949	39.68147563390701	0.6925724018615814	0	0	0	1.932007269553037	-0.5683755284016829	5.018138760214829	108.2559108388604	1.971707094942591	13.28989281741693	22.96029153717865	148.4125922715571	0	0	13.58797311565904	-13.64658397619021	0.4225502217696631	19.8390988855156	143.4365685875246	0	0
9.539999999999885	2.157174005890279	-0.3881391317006341	30.32665076843832	0	0.9399999999999999	0	33.84125241241632	-9.664472815206969	-9.121924855722421	39.70256510285199	0.6929404825321683	0	0	0	33.84125241241632	-9.664472815206969	-9.121924855722421	39.70256510285199	0.6929404825321683	0	0	0	1.857441089220948	-0.8308577365543599	5.280767037519694	108.1962445413822	1.989877150086597	14.08399588980395	10.91664738773716	149.2087315976731	0	0	15.03902489098049	-12.83339416395118	3.719916460814808	15.95242743014836	141.9406144675222	0	0
9.559999999999885	2.273530532336709	-0.604931434876639	30.69283943609152	0	0.9399999999999999	0	33.75457862956443	-9.658774582132116	-9.110605906891461	39.58712247402332	0.6909256285619503	0	0	0	33.75457862956443	-9.658774582132116	-9.110605906891461	39.58712247402332	0.6909256285619503	0	0	0	1.886495488386813	-1.089678947732264	5.506579093481237	108.5788737889931	6.411456718335086	19.68640989730665	-2.040085455902749	151.328307464326	0	0	15.91348572037855	-11.78848354083728	7.693116905546888	12.60953970503	139.9670090205742	0	0
9.579999999999885	2.434317066026987	-0.883168030528271	30.98020422754135	0	0.9399999999999999	0	34.0724052459852	-9.680363980537502	-9.153517636741126	39.9730833301674	0.6976619162854807	0	0	0	34.0724052459852	-9.680363980537502	-9.153517636741126	39.9730833301674	0.6976619162854807	0	0	0	1.806743985959848	-1.367684525102754	6.05281821430716	106.3474921969075	11.94614782522039	38.84015455620916	-9.847120426977542	147.267196174872	0	0	16.55912389162032	-10.72507043611721	10.73313454541223	9.784319319527757	139.3841828630373	0	0
9.599999999999884	2.629723924815019	-1.122244635803695	31.29537737284555	0	0.9399999999999999	0	34.24513878274827	-9.691972238078639	-9.176658877810439	40.18305490190094	0.7013266115478184	0	0	0	34.24513878274827	-9.691972238078639	-9.176658877810439	40.18305490190094	0.7013266115478184	0	0	0	1.872263467267805	-1.691309373877782	6.724952261367191	104.1274505561478	11.76607601877841	51.4489681214669	-9.892953701813157	148.6866515700169	0	0	16.62866435434522	-10.26699832165386	12.43647056775316	7.980761416345784	140.419648007227	0	0
9.619999999999884	2.539006348867258	-1.279169100901217	31.37727824372497	0	0.9399999999999999	0	34.36613651769895	-9.700151936954246	-9.192911096073962	40.32937446858919	0.7038803697466198	0	0	0	34.36613651769895	-9.700151936954246	-9.192911096073962	40.32937446858919	0.7038803697466198	0	0	0	1.731351239630544	-1.794388389257593	6.757396855663355	103.4246193778826	12.62121213453378	58.46407410518568	-9.877019345047328	142.7507293787322	0	0	16.59837693339583	-10.1427461998498	11.327543832493	7.233955817645872	143.7128317035859	0	0
9.639999999999883	2.501649809222343	-1.259293656517741	31.56051158298179	0	0.9399999999999999	0	34.44141241934691	-9.705369391218376	-9.203151319049116	40.41969743120081	0.7054568028343483	0	0	0	34.44141241934691	-9.705369391218376	-9.203151319049116	40.41969743120081	0.7054568028343483	0	0	0	1.715287838082497	-1.738702436068564	6.526659762247152	102.2499992868958	13.77066805431406	55.78167007697107	-9.572050825018053	139.5837552461814	0	0	16.06406394013609	-10.20346413338122	8.980466034823174	7.242701215575707	148.5783986097851	0	0
9.659999999999883	2.628773851939227	-0.9106273386320944	31.75324166311716	0	0.9399999999999999	0	34.65973636670065	-9.718972072749036	-9.231284757895251	40.68441584396849	0.7100770107277978	0	0	0	34.65973636670065	-9.718972072749036	-9.231284757895251	40.68441584396849	0.7100770107277978	0	0	0	2.013919823569336	-1.479385982753409	6.380841432621683	100.6264578128833	13.24591950546206	46.407229011567	-6.438941836344808	147.3581864851172	0	0	15.36755358143652	-9.715811486841178	8.884422585697443	6.96213558889606	150.8159457895686	0	0
9.679999999999882	2.605699620785054	-0.7461647158682392	31.69530768226788	0	0.9399999999999999	0	34.86383663528552	-9.731114331156659	-9.256889479793834	40.93578083977586	0.714464157528898	0	0	0	34.86383663528552	-9.731114331156659	-9.256889479793834	40.93578083977586	0.714464157528898	0	0	0	2.095550327413628	-1.289377453453882	5.850430835489383	98.5012898429632	12.55170718112474	37.21496626663374	-2.357601640695358	156.5242849054343	0	0	14.28842079432817	-9.831246199690408	5.859862872496177	7.536071292841225	153.2943794365941	0	0
9.699999999999882	2.611432201977067	-0.6799828766144912	31.60505690062441	0	0.9399999999999999	0	34.96532335269425	-9.737313003655531	-9.269740122175284	41.06210262584749	0.7166688886128479	0	0	0	34.96532335269425	-9.737313003655531	-9.269740122175284	41.06210262584749	0.7166688886128479	0	0	0	2.124010462750147	-1.248693356754308	5.467395458440842	95.74069876479408	13.84707789184285	36.99493732445035	-0.8797409511756803	156.1833259807347	0	0	14.11175819847388	-9.828046640537547	5.383122713766078	7.453361775245409	152.7116737947028	0	0
9.719999999999882	2.528531776911239	-0.7691074641410819	32.1710581103953	0	0.9399999999999999	0	35.05511921636703	-9.742888807306226	-9.281194651156714	41.17366996883851	0.7186161060857431	0	0	0	35.05511921636703	-9.742888807306226	-9.281194651156714	41.17366996883851	0.7186161060857431	0	0	0	1.993851298609713	-1.298452459278128	4.845891720267015	94.35936529121798	14.47732817005397	40.22984470432244	0.1349696760872225	150.7664154479012	0	0	12.77931209118093	-10.07963872533585	1.450969198762331	8.629845589587934	154.7210621637478	0	0
9.739999999999881	2.58693334185671	-0.7347349988308516	32.2959263630277	0	0.9399999999999999	0	35.20634990713965	-9.751928990080494	-9.300127906308761	41.36148810271654	0.7218941509168662	0	0	0	35.20634990713965	-9.751928990080494	-9.300127906308761	41.36148810271654	0.7218941509168662	0	0	0	2.059168115076327	-1.319713765317521	4.39440716440227	92.72824095118297	15.35234384280463	42.76004175953913	1.038243058922939	146.1872750862702	0	0	11.99296267912336	-10.15235179360005	0.4074988229267128	8.993046910896583	154.1380022009194	0	0
9.759999999999881	2.571138106834031	-0.7804617006559453	32.35906645763463	0	0.9399999999999999	0	35.2107763609206	-9.752313624021268	-9.300824374734946	41.36573348394945	0.7219682467973828	0	0	0	35.2107763609206	-9.752313624021268	-9.300824374734946	41.36573348394945	0.7219682467973828	0	0	0	2.015906728429164	-1.353290271419137	4.167320438797256	91.34474408948361	16.40683620705507	44.39470048351527	1.241159307379378	144.725564829234	0	0	11.52273242798603	-10.36532722677996	0.2984216532419312	9.460568392729005	153.334818546671	0	0
9.77999999999988	2.460966371948106	-0.9157696497085026	32.16165364393225	0	0.9399999999999999	0	35.21679613963525	-9.752836771735652	-9.301771819155421	41.37150030021016	0.7220688967284897	0	0	0	35.21679613963525	-9.752836771735652	-9.301771819155421	41.37150030021016	0.7220688967284897	0	0	0	1.843989004337478	-1.412478894270512	3.954221422032792	90.46552416825989	17.43450636286533	44.93331475200014	1.011221929439587	145.6083527712847	0	0	11.24353888637191	-10.60355055860247	0.4103516921589577	9.984741277949782	151.4272058611566	0	0
9.79999999999988	2.662424689243591	-0.641293361623123	31.59946518885515	0	0.9399999999999999	0	35.22762927968766	-9.753773144496014	-9.303471972149339	41.38189551877753	0.7222503275189548	0	0	0	35.22762927968766	-9.753773144496014	-9.303471972149339	41.38189551877753	0.7222503275189548	0	0	0	2.160062571828302	-1.288549317175235	3.730152725564433	88.69194094725597	18.16103014718411	43.80156001091779	1.21394192259707	146.7318730052563	0	0	10.42795739399677	-10.43708995141934	-0.420366933325104	10.22852520184122	150.3996786959602	0	0
9.819999999999879	2.663233690481241	-0.639334988999368	31.4366911317539	0	0.9399999999999999	0	35.32227202573858	-9.759531722124084	-9.315435431266074	41.49799605180323	0.7242766640835736	0	0	0	35.32227202573858	-9.759531722124084	-9.315435431266074	41.49799605180323	0.7242766640835736	0	0	0	2.163060161162627	-1.282396219350582	3.886509069740385	87.74343885116404	17.43669749407961	40.48711789519702	1.844631140203574	147.7401747938419	0	0	9.324469129923965	-10.78215942610858	0.2788614301109035	11.57217871020207	149.2295534902842	0	0
